<?xml version="1.0" encoding="utf-8"?>
<!-- Generator: Adobe Illustrator 27.5.0, SVG Export Plug-In . SVG Version: 6.00 Build 0)  -->
<svg version="1.1" id="Layer_1" xmlns="http://www.w3.org/2000/svg" xmlns:xlink="http://www.w3.org/1999/xlink" x="0px" y="0px"
	 viewBox="0 0 841.89 595.28" style="enable-background:new 0 0 841.89 595.28;" xml:space="preserve">
<style type="text/css">
	.st0{fill:#F6A800;}
</style>
<g>
	<path class="st0" d="M282.42,359.62c-2.16,0-4.33-0.56-6.26-1.67l-40.18-23.19c-3.86-2.23-6.25-6.39-6.25-10.84v-46.4
		c0-4.45,2.4-8.6,6.25-10.83l40.18-23.2c3.86-2.23,8.65-2.22,12.51,0l37.29,21.53c5.66,3.27,9.14,9.3,9.14,15.84v43.06
		c0,4.45-2.39,8.6-6.25,10.83l-40.19,23.2C286.74,359.07,284.58,359.62,282.42,359.62z M246.18,324.98l33.34,19.25
		c1.79,1.03,3.99,1.03,5.78,0l33.35-19.25c1.79-1.03,2.89-2.94,2.89-5.01v-38.5c0-2.06-1.1-3.97-2.89-5.01l-33.35-19.25
		c-1.79-1.03-3.99-1.03-5.78,0l-33.34,19.25c-1.79,1.03-2.89,2.94-2.89,5.01v38.5C243.29,322.04,244.39,323.95,246.18,324.98z
		 M282.94,255.24L282.94,255.24C282.94,255.24,282.94,255.24,282.94,255.24L282.94,255.24z"/>
	<g>
		<g>
			<g>
				<path d="M361.46,299.28h9.9c4.3,0,7.56,0.63,9.78,1.89c2.23,1.26,3.34,3.44,3.34,6.54c0,1.96-0.53,3.6-1.59,4.93
					c-1.06,1.33-2.57,2.16-4.52,2.51v0.24c1.33,0.25,2.53,0.67,3.62,1.26c1.09,0.59,1.95,1.42,2.58,2.51
					c0.63,1.09,0.95,2.52,0.95,4.29c0,3.1-1.07,5.48-3.22,7.15c-2.15,1.68-5.05,2.51-8.72,2.51h-12.13V299.28z M366.57,313.4h5.64
					c2.65,0,4.48-0.43,5.47-1.28c0.99-0.85,1.49-2.12,1.49-3.79c0-1.67-0.61-2.88-1.82-3.62c-1.22-0.74-3.12-1.11-5.71-1.11h-5.07
					V313.4z M366.57,317.57v11.28h6.21c2.72,0,4.62-0.54,5.71-1.61c1.09-1.07,1.63-2.49,1.63-4.26c0-1.61-0.56-2.91-1.68-3.91
					c-1.12-0.99-3.12-1.49-5.99-1.49H366.57z"/>
				<path d="M394.52,297.86c0.76,0,1.42,0.22,1.99,0.66c0.57,0.44,0.85,1.18,0.85,2.23c0,1.01-0.28,1.74-0.85,2.2
					c-0.57,0.46-1.23,0.69-1.99,0.69c-0.79,0-1.47-0.23-2.04-0.69c-0.57-0.46-0.85-1.19-0.85-2.2c0-1.04,0.28-1.78,0.85-2.23
					C393.06,298.08,393.73,297.86,394.52,297.86z M396.99,307.57v25.53h-5.02v-25.53H396.99z"/>
				<path d="M414.89,307.1c3.35,0,5.98,1.03,7.91,3.1c1.93,2.07,2.89,4.89,2.89,8.46v2.75l-17.15,0c0.06,2.62,0.75,4.63,2.06,6.02
					c1.31,1.39,3.15,2.08,5.52,2.08c1.64,0,3.1-0.15,4.38-0.45c0.68-0.16,1.37-0.36,2.07-0.6c0.92-0.32,1.89,0.36,1.89,1.34v2.08
					c-1.3,0.6-2.59,1.04-3.88,1.3c-1.3,0.27-2.84,0.4-4.64,0.4c-2.46,0-4.64-0.49-6.54-1.47c-1.9-0.98-3.37-2.43-4.43-4.36
					c-1.06-1.93-1.59-4.33-1.59-7.2c0-2.87,0.48-5.31,1.45-7.3c0.96-1.99,2.31-3.51,4.03-4.57
					C410.58,307.63,412.59,307.1,414.89,307.1z M414.89,310.98c-1.8,0-3.25,0.58-4.33,1.75c-1.09,1.17-1.73,2.83-1.92,4.97h12.03
					c-0.03-1.99-0.51-3.61-1.44-4.86C418.3,311.61,416.85,310.98,414.89,310.98z"/>
				<path d="M444.88,307.1c2.97,0,5.24,0.74,6.82,2.23c1.58,1.49,2.37,3.87,2.37,7.15v16.63h-4.97v-15.92
					c0-3.98-1.75-5.97-5.26-5.97c-2.59,0-4.38,0.77-5.38,2.32c-0.99,1.55-1.49,3.77-1.49,6.68v12.89h-5.02v-25.53h2.45
					c0.89,0,1.66,0.62,1.84,1.49l0.4,1.92h0.28c0.82-1.33,1.95-2.31,3.39-2.94C441.75,307.42,443.27,307.1,444.88,307.1z"/>
			</g>
		</g>
		<g>
			<path d="M373.1,280.42c0,1.07-0.27,1.97-0.8,2.7c-0.54,0.73-1.27,1.28-2.21,1.66c-0.94,0.38-2.01,0.57-3.22,0.57
				c-1.07,0-2.01-0.08-2.82-0.23c-0.8-0.15-1.49-0.34-2.06-0.58v-1.43c0.64,0.25,1.38,0.47,2.22,0.67c0.85,0.19,1.76,0.29,2.75,0.29
				c1.37,0,2.49-0.3,3.36-0.89c0.86-0.59,1.29-1.48,1.29-2.65c0-0.7-0.16-1.29-0.49-1.75c-0.33-0.46-0.83-0.86-1.51-1.21
				c-0.68-0.34-1.55-0.69-2.6-1.04c-1.01-0.35-1.87-0.73-2.59-1.14c-0.72-0.41-1.27-0.93-1.66-1.56c-0.39-0.63-0.58-1.42-0.58-2.38
				c0-0.99,0.25-1.82,0.74-2.49c0.49-0.67,1.17-1.18,2.04-1.53c0.86-0.35,1.85-0.53,2.95-0.53c0.87,0,1.7,0.08,2.49,0.25
				c0.79,0.17,1.53,0.4,2.24,0.7l-0.5,1.26c-1.41-0.6-2.83-0.91-4.27-0.91c-1.24,0-2.25,0.27-3.03,0.82
				c-0.78,0.54-1.17,1.34-1.17,2.4c0,0.77,0.17,1.39,0.5,1.85c0.33,0.46,0.82,0.85,1.46,1.17c0.64,0.32,1.42,0.64,2.34,0.95
				c1.06,0.37,1.96,0.76,2.73,1.17c0.76,0.41,1.35,0.92,1.77,1.52C372.89,278.68,373.1,279.46,373.1,280.42z"/>
			<path d="M382.81,271.47c1.71,0,3.05,0.57,4.01,1.72c0.96,1.15,1.45,2.86,1.45,5.14c0,2.28-0.5,4.02-1.5,5.22
				c-1,1.2-2.36,1.8-4.09,1.8c-1.19,0-2.14-0.25-2.85-0.75c-0.71-0.5-1.24-1.11-1.57-1.81h-0.1c0.02,0.44,0.04,0.9,0.06,1.38
				s0.04,0.95,0.04,1.38v5.48h-1.43v-19.31H378l0.18,2.51h0.08c0.33-0.74,0.87-1.38,1.6-1.94
				C380.58,271.75,381.57,271.47,382.81,271.47z M382.6,272.73c-1.47,0-2.56,0.46-3.27,1.39c-0.7,0.93-1.06,2.28-1.08,4.04v0.25
				c0,1.91,0.35,3.34,1.04,4.29c0.7,0.95,1.76,1.42,3.21,1.42c1.37,0,2.43-0.51,3.17-1.53c0.74-1.02,1.11-2.45,1.11-4.27
				c0-1.79-0.35-3.17-1.04-4.14C385.04,273.21,384,272.73,382.6,272.73z"/>
			<path d="M396.86,271.49c1.51,0,2.63,0.37,3.37,1.11c0.74,0.74,1.11,1.9,1.11,3.49v9h-1.08l-0.28-2.26h-0.05
				c-0.47,0.75-1.06,1.36-1.76,1.82c-0.7,0.46-1.68,0.69-2.92,0.69c-1.27,0-2.28-0.32-3.03-0.96c-0.75-0.64-1.12-1.57-1.12-2.79
				c0-1.32,0.54-2.34,1.62-3.04c1.08-0.7,2.67-1.1,4.76-1.18l2.44-0.13v-0.93c0-1.32-0.26-2.26-0.79-2.8
				c-0.53-0.54-1.3-0.82-2.33-0.82c-0.69,0-1.35,0.09-1.99,0.26c-0.64,0.18-1.27,0.43-1.91,0.77l-0.45-1.16
				c0.62-0.32,1.31-0.58,2.06-0.78C395.27,271.59,396.05,271.49,396.86,271.49z M399.93,278.36l-2.26,0.1
				c-1.71,0.07-2.98,0.36-3.82,0.87c-0.84,0.51-1.26,1.28-1.26,2.3c0,0.82,0.26,1.45,0.78,1.87c0.52,0.43,1.23,0.64,2.14,0.64
				c1.39,0,2.47-0.39,3.23-1.18c0.76-0.79,1.16-1.89,1.19-3.32V278.36z"/>
			<path d="M411.34,271.49c0.7,0,1.31,0.08,1.81,0.23l-0.2,1.31c-0.27-0.07-0.54-0.12-0.8-0.15c-0.27-0.03-0.55-0.05-0.85-0.05
				c-1.24,0-2.22,0.45-2.93,1.34c-0.71,0.9-1.07,2.09-1.07,3.58v7.34h-1.43v-13.37h1.21l0.15,2.51h0.08
				c0.34-0.75,0.84-1.4,1.52-1.94C409.49,271.76,410.33,271.49,411.34,271.49z"/>
			<path d="M420.14,271.47c1.14,0,2.09,0.26,2.87,0.79c0.77,0.53,1.35,1.25,1.73,2.17c0.39,0.92,0.58,1.98,0.58,3.17v1.01h-9.55
				c0,1.76,0.41,3.11,1.23,4.06c0.82,0.95,2,1.42,3.54,1.42c0.84,0,1.57-0.07,2.19-0.2c0.62-0.13,1.3-0.37,2.04-0.7v1.31
				c-0.67,0.3-1.33,0.52-1.99,0.65c-0.65,0.13-1.42,0.2-2.29,0.2c-1.99,0-3.53-0.61-4.6-1.83c-1.07-1.22-1.61-2.89-1.61-5
				c0-1.36,0.23-2.57,0.69-3.63c0.46-1.06,1.13-1.9,2-2.5C417.84,271.77,418.9,271.47,420.14,271.47z M420.11,272.68
				c-1.22,0-2.22,0.41-2.98,1.23c-0.76,0.82-1.21,1.99-1.35,3.49h8.02c0-1.41-0.3-2.55-0.89-3.42
				C422.32,273.11,421.38,272.68,420.11,272.68z"/>
			<path d="M430.59,265.99v5.28c0,0.47-0.01,0.98-0.02,1.53c-0.02,0.55-0.04,1-0.08,1.33h0.1c0.34-0.75,0.88-1.39,1.65-1.9
				c0.76-0.51,1.73-0.77,2.9-0.77c1.72,0,3.07,0.58,4.02,1.75c0.95,1.17,1.43,2.89,1.43,5.17c0,2.11-0.48,3.8-1.45,5.07
				c-0.96,1.27-2.37,1.9-4.21,1.9c-1.12,0-2.04-0.24-2.75-0.7c-0.71-0.47-1.24-1.04-1.57-1.71h-0.13l-0.25,2.16h-1.08v-19.11H430.59
				z M434.97,272.7c-1.56,0-2.68,0.49-3.35,1.46c-0.68,0.97-1.02,2.38-1.02,4.22v0.18c0,1.81,0.32,3.19,0.97,4.14
				c0.65,0.95,1.71,1.42,3.21,1.42c1.44,0,2.53-0.5,3.26-1.5c0.73-1,1.09-2.42,1.09-4.26C439.12,274.59,437.73,272.7,434.97,272.7z"
				/>
			<path d="M449.22,271.49c1.51,0,2.63,0.37,3.37,1.11c0.74,0.74,1.11,1.9,1.11,3.49v9h-1.08l-0.28-2.26h-0.05
				c-0.47,0.75-1.06,1.36-1.76,1.82c-0.7,0.46-1.68,0.69-2.92,0.69c-1.27,0-2.28-0.32-3.03-0.96c-0.75-0.64-1.12-1.57-1.12-2.79
				c0-1.32,0.54-2.34,1.62-3.04c1.08-0.7,2.67-1.1,4.76-1.18l2.44-0.13v-0.93c0-1.32-0.26-2.26-0.79-2.8
				c-0.53-0.54-1.3-0.82-2.33-0.82c-0.69,0-1.35,0.09-1.99,0.26c-0.64,0.18-1.27,0.43-1.91,0.77l-0.45-1.16
				c0.62-0.32,1.31-0.58,2.06-0.78S448.42,271.49,449.22,271.49z M452.29,278.36l-2.26,0.1c-1.71,0.07-2.98,0.36-3.82,0.87
				c-0.84,0.51-1.26,1.28-1.26,2.3c0,0.82,0.26,1.45,0.78,1.87c0.52,0.43,1.23,0.64,2.14,0.64c1.39,0,2.47-0.39,3.23-1.18
				c0.76-0.79,1.16-1.89,1.19-3.32V278.36z"/>
			<path d="M464.21,271.47c1.52,0,2.69,0.39,3.49,1.18c0.8,0.79,1.21,2.02,1.21,3.7v8.75h-1.43v-8.65c0-1.27-0.29-2.21-0.87-2.82
				c-0.58-0.6-1.43-0.91-2.55-0.91c-2.95,0-4.43,1.69-4.43,5.08v7.29h-1.41v-13.37h1.16l0.2,2.31h0.1c0.35-0.74,0.91-1.35,1.67-1.84
				C462.12,271.71,463.07,271.47,464.21,271.47z"/>
			<path d="M474.86,265.99v9.7c0,0.54-0.01,1.09-0.02,1.67c-0.02,0.58-0.03,1.15-0.03,1.72h0.03c0.22-0.27,0.46-0.57,0.74-0.92
				c0.28-0.34,0.54-0.65,0.79-0.92l5.08-5.53h1.71l-5.28,5.73l5.73,7.64h-1.71l-5.03-6.69l-2.01,2.06v4.63h-1.41v-19.11H474.86z"/>
			<path d="M494.98,281.55c0,1.22-0.45,2.16-1.34,2.82c-0.9,0.65-2.17,0.98-3.83,0.98c-0.94,0-1.76-0.08-2.48-0.25
				s-1.31-0.37-1.8-0.6v-1.38c0.59,0.3,1.26,0.55,2.01,0.74c0.75,0.19,1.52,0.29,2.31,0.29c1.31,0,2.25-0.22,2.84-0.67
				c0.59-0.44,0.88-1.05,0.88-1.82c0-0.74-0.31-1.3-0.92-1.7c-0.61-0.39-1.53-0.8-2.75-1.22c-0.82-0.28-1.55-0.57-2.17-0.85
				c-0.63-0.29-1.12-0.66-1.47-1.12c-0.35-0.46-0.53-1.08-0.53-1.87c0-1.07,0.44-1.91,1.31-2.51c0.87-0.6,2.04-0.91,3.49-0.91
				c0.8,0,1.55,0.08,2.25,0.24c0.7,0.16,1.33,0.36,1.9,0.59l-0.5,1.18c-0.52-0.24-1.11-0.43-1.76-0.58
				c-0.65-0.15-1.31-0.23-1.96-0.23c-1.06,0-1.88,0.18-2.46,0.55c-0.59,0.37-0.88,0.91-0.88,1.61c0,0.54,0.14,0.96,0.43,1.27
				c0.28,0.31,0.69,0.58,1.23,0.8c0.54,0.23,1.19,0.47,1.96,0.74c0.79,0.27,1.5,0.55,2.15,0.85s1.16,0.69,1.53,1.16
				C494.79,280.13,494.98,280.76,494.98,281.55z"/>
			<path d="M502.37,284.14c0.37,0,0.72-0.03,1.07-0.09c0.34-0.06,0.63-0.13,0.87-0.21v1.16c-0.27,0.1-0.58,0.18-0.94,0.25
				c-0.36,0.07-0.76,0.1-1.19,0.1c-1.11,0-1.96-0.31-2.56-0.94c-0.6-0.63-0.91-1.64-0.91-3.03v-8.5h-1.99v-0.8l1.99-0.45l0.5-3.09
				h0.9v3.19h4.12v1.16h-4.12v8.45C500.11,283.2,500.86,284.14,502.37,284.14z"/>
			<path d="M508.57,266.77c0.67,0,1,0.36,1,1.08c0,0.74-0.33,1.11-1,1.11c-0.64,0-0.96-0.37-0.96-1.11
				C507.62,267.13,507.94,266.77,508.57,266.77z M509.28,271.72v13.37h-1.41v-13.37H509.28z"/>
			<path d="M519.63,272.88h-3.19v12.22H515v-12.22h-2.46v-0.78l2.46-0.43v-1.31c0-1.54,0.33-2.68,0.99-3.41
				c0.66-0.73,1.66-1.09,3-1.09c0.47,0,0.9,0.04,1.28,0.11c0.39,0.08,0.74,0.16,1.06,0.26l-0.33,1.21c-0.3-0.1-0.63-0.19-0.97-0.25
				c-0.34-0.07-0.69-0.1-1.04-0.1c-0.91,0-1.56,0.26-1.96,0.77c-0.4,0.51-0.6,1.34-0.6,2.48v1.38h3.19V272.88z"/>
			<path d="M526.67,284.14c0.37,0,0.72-0.03,1.07-0.09c0.34-0.06,0.63-0.13,0.87-0.21v1.16c-0.27,0.1-0.58,0.18-0.94,0.25
				c-0.36,0.07-0.76,0.1-1.19,0.1c-1.11,0-1.96-0.31-2.56-0.94c-0.6-0.63-0.91-1.64-0.91-3.03v-8.5h-1.99v-0.8l1.99-0.45l0.5-3.09
				h0.9v3.19h4.12v1.16h-4.12v8.45C524.4,283.2,525.16,284.14,526.67,284.14z"/>
			<path d="M536.77,271.47c1.14,0,2.09,0.26,2.87,0.79c0.77,0.53,1.35,1.25,1.73,2.17c0.39,0.92,0.58,1.98,0.58,3.17v1.01h-9.55
				c0,1.76,0.41,3.11,1.23,4.06c0.82,0.95,2,1.42,3.54,1.42c0.84,0,1.57-0.07,2.19-0.2c0.62-0.13,1.3-0.37,2.04-0.7v1.31
				c-0.67,0.3-1.33,0.52-1.99,0.65c-0.65,0.13-1.42,0.2-2.29,0.2c-1.99,0-3.53-0.61-4.6-1.83c-1.07-1.22-1.61-2.89-1.61-5
				c0-1.36,0.23-2.57,0.69-3.63c0.46-1.06,1.13-1.9,2-2.5C534.48,271.77,535.53,271.47,536.77,271.47z M536.75,272.68
				c-1.22,0-2.22,0.41-2.98,1.23c-0.76,0.82-1.21,1.99-1.35,3.49h8.02c0-1.41-0.3-2.55-0.89-3.42
				C538.96,273.11,538.02,272.68,536.75,272.68z"/>
			<path d="M547.26,285.1h-1.43v-19.11h1.43V285.1z"/>
			<path d="M560.3,281.55c0,1.22-0.45,2.16-1.34,2.82c-0.9,0.65-2.17,0.98-3.83,0.98c-0.94,0-1.76-0.08-2.48-0.25
				c-0.71-0.17-1.31-0.37-1.8-0.6v-1.38c0.59,0.3,1.26,0.55,2.01,0.74c0.75,0.19,1.52,0.29,2.31,0.29c1.31,0,2.25-0.22,2.84-0.67
				c0.59-0.44,0.88-1.05,0.88-1.82c0-0.74-0.31-1.3-0.92-1.7c-0.61-0.39-1.53-0.8-2.75-1.22c-0.82-0.28-1.55-0.57-2.17-0.85
				c-0.63-0.29-1.12-0.66-1.47-1.12c-0.35-0.46-0.53-1.08-0.53-1.87c0-1.07,0.44-1.91,1.31-2.51c0.87-0.6,2.04-0.91,3.49-0.91
				c0.8,0,1.55,0.08,2.25,0.24c0.7,0.16,1.33,0.36,1.9,0.59l-0.5,1.18c-0.52-0.24-1.11-0.43-1.76-0.58
				c-0.65-0.15-1.31-0.23-1.96-0.23c-1.06,0-1.88,0.18-2.46,0.55c-0.59,0.37-0.88,0.91-0.88,1.61c0,0.54,0.14,0.96,0.43,1.27
				c0.28,0.31,0.69,0.58,1.23,0.8c0.54,0.23,1.19,0.47,1.96,0.74c0.79,0.27,1.5,0.55,2.15,0.85s1.16,0.69,1.53,1.16
				C560.12,280.13,560.3,280.76,560.3,281.55z"/>
			<path d="M569,271.47c1.14,0,2.09,0.26,2.87,0.79c0.77,0.53,1.35,1.25,1.73,2.17c0.39,0.92,0.58,1.98,0.58,3.17v1.01h-9.55
				c0,1.76,0.41,3.11,1.23,4.06c0.82,0.95,2,1.42,3.54,1.42c0.84,0,1.57-0.07,2.19-0.2c0.62-0.13,1.3-0.37,2.04-0.7v1.31
				c-0.67,0.3-1.33,0.52-1.99,0.65c-0.65,0.13-1.42,0.2-2.29,0.2c-1.99,0-3.53-0.61-4.6-1.83c-1.07-1.22-1.61-2.89-1.61-5
				c0-1.36,0.23-2.57,0.69-3.63c0.46-1.06,1.13-1.9,2-2.5C566.71,271.77,567.76,271.47,569,271.47z M568.98,272.68
				c-1.22,0-2.22,0.41-2.98,1.23c-0.76,0.82-1.21,1.99-1.35,3.49h8.02c0-1.41-0.3-2.55-0.89-3.42
				C571.19,273.11,570.25,272.68,568.98,272.68z"/>
			<path d="M584.04,271.47c1.52,0,2.69,0.39,3.49,1.18c0.8,0.79,1.21,2.02,1.21,3.7v8.75h-1.43v-8.65c0-1.27-0.29-2.21-0.87-2.82
				c-0.58-0.6-1.43-0.91-2.55-0.91c-2.95,0-4.43,1.69-4.43,5.08v7.29h-1.41v-13.37h1.16l0.2,2.31h0.1c0.35-0.74,0.91-1.35,1.67-1.84
				C581.94,271.71,582.89,271.47,584.04,271.47z"/>
		</g>
	</g>
</g>
</svg>
