<svg xmlns="http://www.w3.org/2000/svg" data-name="Layer 3" viewBox="0 0 64 64" id="polisher-machine"><path d="M44,1A18.957,18.957,0,0,0,26.423,27.163l-9.266,9.266A7.306,7.306,0,0,0,15,41.583L5.535,51.05a4.956,4.956,0,0,0-1.459,4.46L1.293,58.292a1,1,0,0,0,0,1.414l3,3a1,1,0,0,0,1.414,0L8.49,59.924A5.192,5.192,0,0,0,9.242,60a5.278,5.278,0,0,0,3.706-1.535L22.417,49a7.306,7.306,0,0,0,5.154-2.154l9.266-9.266A18.992,18.992,0,1,0,44,1ZM32,20A12.076,12.076,0,1,1,42.515,31.9l1.921-1.921A9.994,9.994,0,1,0,34.022,19.564L32.1,21.485A12.038,12.038,0,0,1,32,20Zm5.843-1.429a5.364,5.364,0,0,1,7.586,7.586L41.5,30.086,33.914,22.5Zm-1.26-1.553a8,8,0,1,1,10.4,10.4,7.356,7.356,0,0,0-10.4-10.4Zm-4.083,6.9L40.086,31.5,33,38.586,25.414,31ZM31.586,40,29.5,42.086,21.914,34.5,24,32.414ZM5,60.586,3.414,59l1.423-1.422a5.261,5.261,0,0,0,1.586,1.586Zm6.535-3.535a3.243,3.243,0,0,1-4.585-4.587L15.4,44.013A7.391,7.391,0,0,0,19.987,48.6ZM26.157,45.429a5.364,5.364,0,0,1-7.586-7.586L20.5,35.914,28.086,43.5ZM44,37a16.881,16.881,0,0,1-5.621-.965l2.413-2.413A14.027,14.027,0,1,0,30.378,23.208l-2.413,2.413A16.995,16.995,0,1,1,44,37Z"></path><path d="M41.5,62.356a9.833,9.833,0,0,0,7,0,10,10,0,1,0,0-18.712,9.833,9.833,0,0,0-7,0A9.9,9.9,0,0,0,38,43a10,10,0,0,0,0,20A9.9,9.9,0,0,0,41.5,62.356ZM52,45a8,8,0,1,1-.945,15.939,9.961,9.961,0,0,0,0-15.878A8,8,0,0,1,52,45Zm-7,0a8,8,0,1,1-.945,15.939,9.961,9.961,0,0,0,0-15.878A8,8,0,0,1,45,45ZM30,53a8,8,0,1,1,8,8A8.009,8.009,0,0,1,30,53Z"></path><rect width="2" height="2" x="37" y="47"></rect><rect width="2" height="2" x="37" y="57"></rect><rect width="2" height="2" x="32" y="52"></rect><rect width="2" height="2" x="42" y="52"></rect><rect width="2" height="2" x="49" y="52"></rect><rect width="2" height="2" x="56" y="52"></rect></svg>