<svg xmlns="http://www.w3.org/2000/svg" fill-rule="evenodd" stroke-linejoin="round" stroke-miterlimit="2" clip-rule="evenodd" viewBox="0 0 96 96" id="price-tag"><rect width="96" height="96" fill="none"></rect><path d="M55.645,1.83c-0.945,0.946 -46.794,46.795 -53.815,53.815c-0.851,0.852 -1.33,2.007 -1.33,3.212c0,1.204 0.479,2.36 1.33,3.211c6.46,6.46 25.642,25.642 32.102,32.102c0.851,0.851 2.007,1.33 3.211,1.33c1.205,0 2.36,-0.479 3.212,-1.33c9.491,-9.492 47.439,-47.44 53.815,-53.815c0.869,-0.87 1.349,-2.055 1.329,-3.285c-0.082,-5.134 -0.389,-24.21 -0.508,-31.593c-0.039,-2.451 -2.017,-4.429 -4.468,-4.468c-7.383,-0.119 -26.459,-0.426 -31.593,-0.508c-1.23,-0.02 -2.415,0.46 -3.285,1.329l0,0Zm-51.693,55.937l53.815,-53.815c0.295,-0.296 0.697,-0.459 1.115,-0.452l31.593,0.508c0.832,0.014 1.503,0.685 1.517,1.517l0.508,31.593c0.007,0.418 -0.156,0.82 -0.452,1.115l-53.815,53.815c-0.289,0.29 -0.681,0.452 -1.09,0.452c-0.409,-0 -0.801,-0.162 -1.09,-0.452c-6.46,-6.459 -25.642,-25.641 -32.101,-32.101c-0.29,-0.289 -0.452,-0.681 -0.452,-1.09c-0,-0.409 0.162,-0.801 0.452,-1.09Z"></path><path d="M8.902 50.694l36.404 36.404c.585.585 1.536.585 2.121 0 .585-.586.585-1.536 0-2.122l-36.403-36.403c-.586-.585-1.536-.585-2.122 0-.585.585-.585 1.536 0 2.121zm47.094 25.713l-26.343-26.343c-.585-.585-1.535-.585-2.121 0-.585.585-.585 1.536 0 2.121l26.343 26.343c.585.586 1.536.586 2.121 0 .586-.585.586-1.536 0-2.121zm-31.139-31.139l-5.264-5.264c-.585-.586-1.536-.586-2.121 0-.586.585-.586 1.536 0 2.121l5.264 5.264c.585.586 1.536.586 2.121 0 .586-.585.586-1.536 0-2.121zM70.116 17.909c2.176-.601 4.605-.047 6.314 1.661 2.528 2.529 2.528 6.634 0 9.162-2.529 2.528-6.634 2.528-9.162 0-2.12-2.12-2.463-5.348-1.028-7.826.083-.142.171-.282.265-.419.469-.683.296-1.617-.386-2.086-.683-.469-1.617-.296-2.086.387-.138.201-.268.406-.389.615-2.099 3.625-1.599 8.349 1.503 11.45 3.699 3.699 9.705 3.699 13.404 0 3.699-3.699 3.699-9.705 0-13.404-2.499-2.499-6.051-3.31-9.233-2.432-.798.22-1.267 1.047-1.047 1.845.22.798 1.047 1.267 1.845 1.047z"></path></svg>